Coordinates
version=1
nRows=8
nColumns=40
inDegrees=yes

Units are S.I. units (second, meters, Newtons, ...)
Angles are in degrees.

endheader
time	pelvis_tilt	pelvis_list	pelvis_rotation	pelvis_tx	pelvis_ty	pelvis_tz	hip_flexion_r	hip_adduction_r	hip_rotation_r	knee_angle_r	knee_angle_r_beta	ankle_angle_r	subtalar_angle_r	mtp_angle_r	hip_flexion_l	hip_adduction_l	hip_rotation_l	knee_angle_l	knee_angle_l_beta	ankle_angle_l	subtalar_angle_l	mtp_angle_l	lumbar_extension	lumbar_bending	lumbar_rotation	arm_flex_r	arm_add_r	arm_rot_r	elbow_flex_r	pro_sup_r	wrist_flex_r	wrist_dev_r	arm_flex_l	arm_add_l	arm_rot_l	elbow_flex_l	pro_sup_l	wrist_flex_l	wrist_dev_l
     11.90250000	     -0.65215763	     -6.38263517	     -1.72127598	      1.13461715	      0.92580829	      0.46997685	     16.62980231	      3.77040021	     -9.57282796	     21.21024364	     21.21024364	      7.36921571	     -1.85611348	     -4.69531681	     11.18692881	    -13.84909830	     -7.31407498	     48.81411187	     48.81411187	     11.68851863	    -18.28704313	     -2.99963747	    -12.29198818	      7.27159633	      1.45815292	      1.00923673	    -14.47583105	     -6.62618080	     40.32219928	     45.63906078	      0.00000000	      0.00000000	     10.04244844	    -11.81011446	     -4.89862576	     63.58288632	     47.38410769	      0.00000000	      0.00000000
     11.91542857	     -0.44662958	     -6.51517514	     -1.27381080	      1.13498677	      0.92611934	      0.47219861	     16.03501049	      3.99295840	     -9.91685229	     21.26408651	     21.26408651	      7.73988178	     -1.99495960	     -4.78715214	     13.21058900	    -14.55033482	     -6.32151523	     52.68062884	     52.68062884	      9.57291260	    -18.57353930	     -2.68442431	    -12.50203981	      7.40266878	      1.72207600	      2.18555738	    -14.69972842	     -6.58051080	     40.90370925	     45.62293995	      0.00000000	      0.00000000	      9.49079553	    -11.75740265	     -4.88429212	     62.99930590	     47.36930865	      0.00000000	      0.00000000
     11.92835714	     -0.48060457	     -6.53857005	     -0.76942274	      1.13494669	      0.92608630	      0.47406536	     15.77233436	      4.11251519	    -10.10549286	     21.39471171	     21.39471171	      8.10589117	     -2.49412150	     -4.60394716	     15.71830253	    -14.85917310	     -4.94768196	     56.62950179	     56.62950179	      8.62053894	    -18.60104108	      1.23594885	    -12.37512564	      7.48113482	      1.57886897	      3.17465218	    -15.15983723	     -5.25918955	     42.43730523	     45.51099598	      0.00000000	      0.00000000	      9.13752700	    -11.52860220	     -5.67962158	     60.88803575	     47.38719450	      0.00000000	      0.00000000
     11.94128571	     -0.46761912	     -6.56087215	     -0.25120581	      1.13470657	      0.92609013	      0.47579030	     15.43570497	      4.21094994	    -10.39034184	     21.46181733	     21.46181733	      8.45462373	     -2.81716270	     -4.58877984	     17.98611560	    -15.16249534	     -3.78792289	     59.93876736	     59.93876736	      6.80354707	    -18.71346026	      2.49583669	    -12.37279251	      7.52295559	      1.45080866	      4.50158246	    -15.36477443	     -5.02609729	     43.40842132	     45.47444227	      0.00000000	      0.00000000	      8.49683722	    -11.66561282	     -5.72351992	     59.86827533	     47.36683119	      0.00000000	      0.00000000
     11.95421429	     -0.28993099	     -6.61416115	      0.26701681	      1.13430696	      0.92638650	      0.47734240	     14.90315187	      4.33783111	    -10.68480138	     21.47207992	     21.47207992	      8.69260234	     -3.03653819	     -4.57896224	     19.93818869	    -15.38418216	     -2.64334622	     62.73105077	     62.73105077	      5.01384702	    -18.81677498	      3.17753190	    -12.64751004	      7.55303467	      1.71901470	      5.71960326	    -15.75127949	     -5.00296155	     44.04784026	     45.45816427	      0.00000000	      0.00000000	      8.03919283	    -11.57253357	     -5.71828733	     59.23690903	     47.35243994	      0.00000000	      0.00000000
     11.96714286	     -0.43348516	     -6.65174153	      0.82222072	      1.13363898	      0.92627416	      0.47876259	     14.72343251	      4.46109251	    -10.94850656	     21.43415760	     21.43415760	      8.93136730	     -3.45789365	     -4.48581425	     22.21609067	    -15.43309713	     -1.42348108	     65.12930530	     65.12930530	      3.79722119	    -18.80577353	      4.40369204	    -12.50515937	      7.55004086	      1.44557950	      6.96661670	    -15.94421341	     -4.80672992	     45.12761580	     45.41738010	      0.00000000	      0.00000000	      7.34166672	    -11.68204030	     -5.81732791	     57.84546604	     47.33318992	      0.00000000	      0.00000000
     11.98007143	     -0.41166534	     -6.39787921	      1.32257252	      1.13285229	      0.92669668	      0.47981339	     14.41519269	      4.28060956	    -10.93228951	     21.50626982	     21.50626982	      9.23985954	     -4.03775612	     -4.09052830	     24.11883864	    -14.96779641	     -0.37832070	     67.00654992	     67.00654992	      3.94355832	    -18.66803930	      8.60679592	    -12.57543484	      7.29863031	      1.32288068	      7.93516464	    -16.57372560	     -3.23252867	     47.44894265	     45.27246193	      0.00000000	      0.00000000	      7.45608809	    -11.46201453	     -6.67516434	     54.53774433	     47.34826854	      0.00000000	      0.00000000
     11.99300000	     -0.52406867	     -6.28019898	      1.78489086	      1.13194671	      0.92698073	      0.48087895	     14.13199042	      4.22339108	    -11.16022401	     21.33298495	     21.33298495	      9.53567447	     -4.10345065	     -3.84098132	     25.96997066	    -14.69319747	      0.48035209	     68.22074152	     68.22074152	      3.77243698	    -18.52682964	     10.26682325	    -12.54898945	      7.12007106	      1.50269636	      8.72903145	    -17.33890442	     -2.06201988	     49.41026921	     45.16948134	      0.00000000	      0.00000000	      7.31474643	    -11.21637939	     -7.21464405	     52.53223084	     47.34851639	      0.00000000	      0.00000000
